<?xml version="1.0" encoding="UTF-8"?>
<svg width="1200pt" height="1200pt" version="1.1" viewBox="0 0 1200 1200" xmlns="http://www.w3.org/2000/svg">
 <g>
  <path d="m1200 600c0 214.36-114.36 412.44-300 519.62-185.64 107.18-414.36 107.18-600 0-185.64-107.18-300-305.26-300-519.62s114.36-412.44 300-519.62c185.64-107.18 414.36-107.18 600 0 185.64 107.18 300 305.26 300 519.62" fill="#f9a826"/>
  <path d="m817.06 411.07 23.613 47.23h54.531v-23.617h-39.934l-11.809-23.613h51.742v-23.617h-129.89v23.617z" fill="#fff"/>
  <path d="m304.8 387.46v23.617h51.742l-11.809 23.613h-39.934v23.617h54.531l23.613-47.23h51.742v-23.617z" fill="#fff"/>
  <path d="m460.35 652.37c8.2539 13.012 18.113 24.914 29.543 35.164l26.602-53.207-24.523-81.734c-18.703-0.93359-33.664-16.32-33.664-35.25 0-19.531 15.895-35.426 35.426-35.426s35.426 15.895 35.426 35.426c0 11.703-5.7734 22.023-14.547 28.469l23.328 77.805h124.12l23.332-77.805c-8.7695-6.4453-14.543-16.766-14.543-28.469 0-19.531 15.895-35.426 35.426-35.426s35.426 15.895 35.426 35.426c0 18.93-14.961 34.312-33.676 35.246l-24.523 81.734 26.602 53.207c11.43-10.25 21.301-22.152 29.543-35.164l31.57 42.098h123.98v-23.617h-70.848l17.711-23.617 53.137 0.003906v-23.617h-64.945l-35.426 47.23h-11.809l-31.172-41.551c8.5625-19.883 13.461-41.707 13.461-64.719v-153.5h-98.977l-23.617 47.23h-85.441l-23.617-47.23h-98.973v153.5c0 23.016 4.8984 44.836 13.461 64.719l-31.172 41.555h-11.809l-35.426-47.23-64.941-0.003906v23.617h53.137l17.711 23.617h-70.848v23.617h123.98zm257.73-217.68h23.617v23.617h-23.617zm-47.23 0h23.617v23.617h-23.617zm-82.656 47.234h23.617v23.617h-23.617zm0 47.23h23.617v23.617h-23.617zm0 47.234h23.617v23.617h-23.617zm-82.656-141.7h23.617v23.617h-23.617zm-47.234 0h23.617v23.617h-23.617z" fill="#fff"/>
  <path d="m257.57 670.85h23.617v23.617h-23.617z" fill="#fff"/>
  <path d="m257.57 623.62h23.617v23.617h-23.617z" fill="#fff"/>
  <path d="m434.69 718.08h23.617v23.617h-23.617z" fill="#fff"/>
  <path d="m257.57 718.08h153.5v23.617h-153.5z" fill="#fff"/>
  <path d="m918.82 670.85h23.617v23.617h-23.617z" fill="#fff"/>
  <path d="m918.82 623.62h23.617v23.617h-23.617z" fill="#fff"/>
  <path d="m741.7 718.08h23.617v23.617h-23.617z" fill="#fff"/>
  <path d="m788.93 718.08h153.5v23.617h-153.5z" fill="#fff"/>
  <path d="m257.57 340.23h23.617v23.617h-23.617z" fill="#fff"/>
  <path d="m257.57 387.46h23.617v23.617h-23.617z" fill="#fff"/>
  <path d="m257.57 434.69h23.617v23.617h-23.617z" fill="#fff"/>
  <path d="m918.82 340.23h23.617v23.617h-23.617z" fill="#fff"/>
  <path d="m918.82 387.46h23.617v23.617h-23.617z" fill="#fff"/>
  <path d="m918.82 434.69h23.617v23.617h-23.617z" fill="#fff"/>
  <path d="m635.43 794.84v-44.777c-7.7109 1.4648-15.609 2.3516-23.617 2.8477v59.641z" fill="#fff"/>
  <path d="m588.2 812.55v-59.641c-8.0039-0.49609-15.906-1.3828-23.617-2.8477v44.777z" fill="#fff"/>
  <path d="m540.96 777.12v-33.203c-8.1484-2.6914-16-6-23.617-9.7305v25.223z" fill="#fff"/>
  <path d="m505.54 517.34c0 6.5234-5.2891 11.809-11.809 11.809-6.5234 0-11.809-5.2852-11.809-11.809 0-6.5195 5.2852-11.805 11.809-11.805 6.5195 0 11.809 5.2852 11.809 11.805" fill="#fff"/>
  <path d="m718.08 517.34c0 6.5234-5.2852 11.809-11.809 11.809-6.5195 0-11.809-5.2852-11.809-11.809 0-6.5195 5.2891-11.805 11.809-11.805 6.5234 0 11.809 5.2852 11.809 11.805" fill="#fff"/>
  <path d="m477.4 783.31 75.172 103.36c13.438-9.4688 29.777-15.078 47.43-15.078s33.996 5.6094 47.434 15.078l75.172-103.36-25.34-5.3359-97.266 72.949-97.262-72.949z" fill="#fff"/>
  <path d="m529.15 352.03h-23.617l0.003906-23.613h47.23v68.062l19.105 38.207h56.254l19.105-38.211v-68.059h47.23v23.617h-23.617v35.426h94.465v-23.617h129.89v-23.617h-129.89c0-41.551-30.867-75.949-70.848-81.711v46.285h-70.848v59.039h-23.617v-82.656h70.848l0.003906-23.613h-141.7v23.617h47.23v23.617h-70.848l0.003906-46.293c-39.98 5.7617-70.848 40.16-70.848 81.711l-129.89 0.003906v23.617h129.89v23.617h94.465zm188.93-23.613h23.617v23.617h-23.617zm-118.08 59.039h23.617v23.617h-23.617zm-118.08-35.426h-23.617v-23.613h23.617z" fill="#fff"/>
  <path d="m663.55 647.23h-127.1l-27.57 55.145c26.156 17.344 57.457 27.512 91.121 27.512s64.969-10.168 91.121-27.512z" fill="#fff"/>
  <path d="m859.78 883.39h47.23v59.039h-47.23z" fill="#fff"/>
  <path d="m682.66 759.41v-25.211c-7.6172 3.7305-15.469 7.0391-23.617 9.7188l0.003907 33.203z" fill="#fff"/>
  <path d="m788.49 573.17 35.863-8.5938v-94.465l-35.426-8.4883v102.95c0 2.9023-0.30469 5.7266-0.4375 8.5938z" fill="#fff"/>
  <path d="m664.75 903.01c8.8555 11.172 14.855 24.668 16.98 39.426h83.586v-96.73l19.695-49.25-37.09-7.8047z" fill="#fff"/>
  <path d="m292.99 883.39h47.23v59.039h-47.23z" fill="#fff"/>
  <path d="m860.13 812.26-51.66-10.875-15.738 39.344 57.148 19.047h56.219c-4.1562-23.309-22.211-42.52-45.969-47.516z" fill="#fff"/>
  <path d="m788.93 942.43h47.234v-62.332l-47.234-15.754z" fill="#fff"/>
  <path d="m600 895.2c-28.504 0-52.355 20.32-57.848 47.23h115.7c-5.4883-26.91-29.34-47.23-57.848-47.23z" fill="#fff"/>
  <path d="m363.84 942.43h47.234v-78.086l-47.234 15.754z" fill="#fff"/>
  <path d="m391.53 801.39-51.66 10.875c-23.758 4.9961-41.812 24.207-45.969 47.516h56.219l57.152-19.047z" fill="#fff"/>
  <path d="m414.99 796.44 19.695 49.262v96.73h83.602c2.125-14.75 8.1133-28.258 16.98-39.426l-83.176-114.37z" fill="#fff"/>
  <path d="m375.65 470.11v94.465l35.859 8.5977c-0.12891-2.8711-0.43359-5.6953-0.43359-8.5977v-102.95z" fill="#fff"/>
 </g>
</svg>
